<svg width="25" height="25" viewBox="0 0 25 25" fill="none" xmlns="http://www.w3.org/2000/svg">
<path d="M15.6617 13.2307L17.1767 21.7567C17.1937 21.8571 17.1796 21.9603 17.1363 22.0525C17.0931 22.1446 17.0227 22.2214 16.9346 22.2725C16.8466 22.3236 16.745 22.3466 16.6435 22.3384C16.542 22.3302 16.4454 22.2913 16.3667 22.2267L12.7867 19.5397C12.6139 19.4106 12.4039 19.3408 12.1882 19.3408C11.9725 19.3408 11.7625 19.4106 11.5897 19.5397L8.00369 22.2257C7.92501 22.2901 7.82855 22.3291 7.72719 22.3373C7.62582 22.3454 7.52436 22.3225 7.43635 22.2716C7.34835 22.2206 7.27797 22.144 7.23461 22.052C7.19125 21.9601 7.17698 21.857 7.19369 21.7567L8.70769 13.2307" stroke="#CA8A04" stroke-width="2" stroke-linecap="round" stroke-linejoin="round"/>
<path d="M12.1847 14.3407C15.4984 14.3407 18.1847 11.6544 18.1847 8.3407C18.1847 5.02699 15.4984 2.3407 12.1847 2.3407C8.87098 2.3407 6.18469 5.02699 6.18469 8.3407C6.18469 11.6544 8.87098 14.3407 12.1847 14.3407Z" stroke="#CA8A04" stroke-width="2" stroke-linecap="round" stroke-linejoin="round"/>
</svg>
