<svg width="21" height="21" viewBox="0 0 21 21" fill="none" xmlns="http://www.w3.org/2000/svg">
<path d="M12.6847 17.8407V11.174C12.6847 10.953 12.5969 10.741 12.4406 10.5848C12.2843 10.4285 12.0724 10.3407 11.8514 10.3407H8.51803C8.29701 10.3407 8.08505 10.4285 7.92877 10.5848C7.77249 10.741 7.68469 10.953 7.68469 11.174V17.8407" stroke="#E0E7FF" stroke-width="2" stroke-linecap="round" stroke-linejoin="round"/>
<path d="M2.68469 8.67401C2.68463 8.43157 2.73747 8.19203 2.83952 7.97211C2.94156 7.75219 3.09036 7.55718 3.27553 7.40068L9.10886 2.40151C9.40968 2.14727 9.79082 2.00778 10.1847 2.00778C10.5786 2.00778 10.9597 2.14727 11.2605 2.40151L17.0939 7.40068C17.279 7.55718 17.4278 7.75219 17.5299 7.97211C17.6319 8.19203 17.6848 8.43157 17.6847 8.67401V16.174C17.6847 16.616 17.5091 17.04 17.1965 17.3525C16.884 17.6651 16.4601 17.8407 16.018 17.8407H4.35136C3.90933 17.8407 3.48541 17.6651 3.17285 17.3525C2.86029 17.04 2.68469 16.616 2.68469 16.174V8.67401Z" stroke="#E0E7FF" stroke-width="2" stroke-linecap="round" stroke-linejoin="round"/>
</svg>
